<?xml version="1.0" encoding="utf-8"?>
<!-- Generator: Adobe Illustrator 22.0.1, SVG Export Plug-In . SVG Version: 6.00 Build 0)  -->
<svg version="1.1" id="Anon_Symbol" xmlns="http://www.w3.org/2000/svg" xmlns:xlink="http://www.w3.org/1999/xlink" x="0px"
	 y="0px" viewBox="0 0 12 16" style="enable-background:new 0 0 12 16;" xml:space="preserve">
<style type="text/css">
	.st0{fill:#231F20;}
</style>
<g>
	<path class="st0" d="M9.4,3.1L9.4,3.1L9.1,3.5c0.3,0.2,0.5,0.4,0.7,0.6c2.1,2.2,2.1,5.6,0,7.8c-1.9,1.9-4.9,2.1-7.1,0.6l-0.2,0.3
		l0,0c2.6,2,6.3,1.4,8.3-1.2s1.4-6.3-1.2-8.3C9.5,3.2,9.4,3.2,9.4,3.1z"/>
	<path class="st0" d="M1.4,11.2L1.4,11.2c-1.7-2.6-1.1-6,1.4-7.8c0.9-0.6,2-1,3.2-1c0.5,0,1,0.1,1.5,0.2l0.1-0.1l0.2-0.3
		c-3.1-1-6.4,0.7-7.4,3.8C-0.2,8,0.1,10,1.2,11.5L1.4,11.2z"/>
	<polygon class="st0" points="6.5,7.1 5.4,8.7 6.8,9.1 	"/>
	<path class="st0" d="M2.5,9.6L0.9,9.3c0.1,0.6,0.4,1.1,0.7,1.6L2.5,9.6z"/>
	<path class="st0" d="M7.1,10.8l-1.2-0.3h0l-0.2-0.1l-1.3-0.3l-1.5,2.1c1.3,1,3,1.3,4.6,0.8L7.1,10.8z"/>
	<path class="st0" d="M9,3.7L7.9,5.3l1.1,7c2.3-1.7,2.9-4.9,1.3-7.2C9.9,4.5,9.5,4.1,9,3.7z"/>
	<path class="st0" d="M0.9,7.7l2.7,0.6L7.3,3C4.5,2.2,1.7,3.8,0.9,6.6C0.9,7,0.8,7.3,0.9,7.7L0.9,7.7z"/>
	<path class="st0" d="M8.7,2.8L8.5,3.1L7,5.1L6.8,5l1.4-2l0.2-0.3L8.2,2.5L7.9,2.8L3.7,8.7L0.8,8.1c0,0.3,0,0.5,0.1,0.8l2.4,0.5
		l-1.5,2.1l-0.2,0.3c0.1,0.1,0.2,0.2,0.3,0.3L2,11.8l1.6-2.3l0.2,0.1l-1.7,2.4l-0.2,0.3c0.1,0.1,0.2,0.2,0.3,0.2l0.2-0.3l1.8-2.5
		l0,0L5.8,10L6,10.1l1.4,0.4l0.4,2.4c0.2-0.1,0.5-0.2,0.7-0.3L7.4,5.2l1.4-1.9L9,2.9L8.7,2.8z M4.7,9L6.8,6l0.5,3.6L4.7,9z"/>
</g>
</svg>
