<svg id="Layer_1" data-name="Layer 1" xmlns="http://www.w3.org/2000/svg" xmlns:xlink="http://www.w3.org/1999/xlink" viewBox="0 0 247 247"><defs><style>.cls-1{opacity:0.3;isolation:isolate;fill:url(#linear-gradient);}.cls-2{fill:#253377;}.cls-2,.cls-3{stroke:#647ce8;}.cls-2,.cls-3,.cls-4,.cls-5,.cls-6{stroke-width:2px;}.cls-3,.cls-5{fill:none;}.cls-3{stroke-linecap:square;}.cls-4{fill:#1f2f7b;}.cls-4,.cls-5,.cls-6{stroke:#ed1e24;}.cls-6{fill:#f9f9f9;}.cls-7{fill:#fff;}</style><linearGradient id="linear-gradient" x1="-180.76" y1="518.9" x2="-180.76" y2="518" gradientTransform="matrix(247, 0, 0, -247, 44772, 128168)" gradientUnits="userSpaceOnUse"><stop offset="0" stop-color="#3950b5"/><stop offset="1" stop-color="#162360"/></linearGradient></defs><title>onboarding-tour-control</title><path id="Oval-2" class="cls-1" d="M123.5,247A123.5,123.5,0,1,0,0,123.5,123.5,123.5,0,0,0,123.5,247Z"/><rect id="Combined-Shape" class="cls-2" x="63" y="24" width="99.83" height="183.88" rx="8" ry="8"/><path id="Line" class="cls-3" d="M63.52,180.63h98.79"/><path id="Line-2" data-name="Line" class="cls-3" d="M104.08,194.25h18.71"/><g id="Group-3"><rect id="Rectangle-path" class="cls-4" x="125.01" y="159.65" width="74.76" height="65.72" rx="4" ry="4"/><path id="Shape" class="cls-5" d="M143.7,159.65V140.87a18.79,18.79,0,0,1,18.69-18.78h0a18.79,18.79,0,0,1,18.69,18.78v18.78"/><path id="Shape-2" data-name="Shape" class="cls-6" d="M161.63,187.81v9.39"/></g><path class="cls-7" d="M125.3,77.88l-.08.11-.73,1a18.88,18.88,0,0,1,2.42,2,18.62,18.62,0,0,1-24.14,28.21l-.74,1-.07.11a20,20,0,1,0,24-32C125.77,78.21,125.54,78,125.3,77.88Z"/><path class="cls-7" d="M98.22,105.24l.24-.33A18.64,18.64,0,0,1,119,76.35l.24-.34.61-.86a20,20,0,0,0-22.21,30.94Z"/><path class="cls-7" d="M123,76.55l-.79,1.09-4.8,6.69-.75-.19,4.9-6.83.78-1.09-1.17-.52-.81,1.12L106,96.79l-9.87-2.16a18.18,18.18,0,0,0,.24,2.55l8.07,1.8-5.09,7.08-.8,1.11c.28.33.57.64.86,1l.79-1.1,5.53-7.71.76.19-5.76,8-.79,1.09c.31.29.62.57,1,.85l.78-1.09,6.15-8.59.16,0,5.07,1.24.82.2,4.89,1.19,1.4,8.14a17,17,0,0,0,2.43-1.18l-3.9-24.76,4.61-6.43.78-1.08ZM109.46,97.63l7.13-9.93,1.78,12.1Z"/></svg>