<svg id="Layer_1" data-name="Layer 1" xmlns="http://www.w3.org/2000/svg" viewBox="0 0 232.98 285.01"><defs><style>.cls-1{fill:#221f1f;}.cls-2{fill:#a8aaad;}.cls-3{fill:#ec2227;}.cls-4{fill:#fff;}</style></defs><title>A_combination_color</title><path class="cls-1" d="M241.06,63.43l-.41.57-3.87,5.39A100.15,100.15,0,0,1,249.6,80.22,98.44,98.44,0,0,1,122,229.33l-3.87,5.39-.41.57A105.79,105.79,0,1,0,241.06,63.43Z" transform="translate(-63.51 -44.04)"/><path class="cls-1" d="M98,208l1.27-1.77A98.51,98.51,0,0,1,207.66,55.32l1.27-1.78L212.17,49A105.8,105.8,0,0,0,94.8,212.52Z" transform="translate(-63.51 -44.04)"/><polygon class="cls-2" points="126.92 90.34 106.18 119.2 132.07 125.5 126.92 90.34"/><path class="cls-2" d="M118.4,179.66l-28.46-6.34a92.65,92.65,0,0,0,12.72,28.26Z" transform="translate(-63.51 -44.04)"/><path class="cls-2" d="M200.12,199.47,179,194.33h-.06l-4.32-1.09-22.76-5.55L125.09,225a93.15,93.15,0,0,0,81.85,14Z" transform="translate(-63.51 -44.04)"/><path class="cls-2" d="M233.63,73.77l-19.71,27.45,19.64,124.69a93,93,0,0,0,.07-152.14Z" transform="translate(-63.51 -44.04)"/><path class="cls-2" d="M88.55,144.76,136,155.16,204.31,60A93.13,93.13,0,0,0,87.1,144.41Z" transform="translate(-63.51 -44.04)"/><path class="cls-3" d="M228.85,56.42l-4.14,5.75L199.35,97.51l-4-1,25.88-36,4.17-5.81-6.23-2.72-4.23,5.89L139.13,163.38,87,151.94a90.66,90.66,0,0,0,1.27,13.47l42.61,9.49L104,212.3l-4.23,5.89q2.19,2.58,4.56,5l4.17-5.8,29.24-40.73,4.05,1L111.27,220.2,107.13,226q2.41,2.31,5,4.47l4.11-5.73,32.57-45.35.83.2,26.79,6.52,4.34,1.11,25.8,6.28,7.45,43a93.57,93.57,0,0,0,12.82-6.21L206.19,99.38l24.38-33.95,4.11-5.72ZM157.36,167.8l37.71-52.47,9.37,63.93Z" transform="translate(-63.51 -44.04)"/><path class="cls-4" d="M63.51,328.26l32.87-60.64h11.78l9.31,60.64H104.91l-1.5-11.51H83.11l-5.89,11.51Zm24.87-21.88h13.71L99.46,285Z" transform="translate(-63.51 -44.04)"/><path class="cls-4" d="M184.09,267.62l-11.78,60.64h-9.93l-16.7-37.53-7.29,37.53H126.7l11.77-60.64h9.85L165,305.68l7.38-38.06Z" transform="translate(-63.51 -44.04)"/><path class="cls-4" d="M205.62,329.05c-13.63,0-21.45-9.31-18-26.8l1.67-8.61c3.6-18.73,13.36-26.81,28.39-26.81,13.71,0,21.53,9.31,18.1,26.81l-1.67,8.61C230.49,320.79,221,329.05,205.62,329.05Zm-5.72-26.8c-2.28,11.6.62,16.43,7.74,16.43s11.86-4.83,14.15-16.43l1.67-8.61c2.28-11.61-.71-16.44-7.82-16.44s-11.78,4.83-14.07,16.44Z" transform="translate(-63.51 -44.04)"/><path class="cls-4" d="M296.49,267.62l-11.78,60.64h-9.93l-16.7-37.53-7.29,37.53H239.1l11.77-60.64h9.85l16.7,38.06,7.38-38.06Z" transform="translate(-63.51 -44.04)"/></svg>