<svg id="Layer_1" data-name="Layer 1" xmlns="http://www.w3.org/2000/svg" viewBox="0 0 579.51 579.06"><defs><style>.cls-1{fill:#b9252b;}.cls-2{fill:#575757;}.cls-3{fill:#e4424e;}.cls-4{fill:#616161;}</style></defs><title>logo-negative</title><path class="cls-1" d="M553.35,258.81a257.34,257.34,0,0,0-86.8-154,204.48,204.48,0,0,0-20.62-15.74l-.22.32a.86.86,0,0,1,.18.14,255.34,255.34,0,0,1,40.16,34.55c5,5.33,9.82,10.76,14.33,16.46a256.83,256.83,0,0,1,33.3,54.68,260.91,260.91,0,0,1,14.47,41.15,264.27,264.27,0,0,1,8,55.94,228.51,228.51,0,0,1-.79,28.18q-1,12.38-3.24,24.6a256.43,256.43,0,0,1-21.89,67.27,250.45,250.45,0,0,1-19.82,33.72,270.64,270.64,0,0,1-31.82,37.59l0,0c0,.12.07.24.11.37,2.43-2.16,4.66-4.54,6.92-6.89a252.32,252.32,0,0,0,46.56-67.73,257.21,257.21,0,0,0,24.45-101.57A250.62,250.62,0,0,0,553.35,258.81Zm0,0a257.34,257.34,0,0,0-86.8-154,204.48,204.48,0,0,0-20.62-15.74l-.22.32a.86.86,0,0,1,.18.14,255.34,255.34,0,0,1,40.16,34.55c5,5.33,9.82,10.76,14.33,16.46a256.83,256.83,0,0,1,33.3,54.68,260.91,260.91,0,0,1,14.47,41.15,264.27,264.27,0,0,1,8,55.94,228.51,228.51,0,0,1-.79,28.18q-1,12.38-3.24,24.6a256.43,256.43,0,0,1-21.89,67.27,250.45,250.45,0,0,1-19.82,33.72,270.64,270.64,0,0,1-31.82,37.59l0,0c0,.12.07.24.11.37,2.43-2.16,4.66-4.54,6.92-6.89a252.32,252.32,0,0,0,46.56-67.73,257.21,257.21,0,0,0,24.45-101.57A250.62,250.62,0,0,0,553.35,258.81ZM302.28,10.48a289.38,289.38,0,0,0-292,289.6C10.05,455.5,134.75,588.69,299.06,589.53c156.65.79,288.32-123.83,290.67-285.66C592,144.92,465.32,12,302.28,10.48ZM431.65,55.53c.68.36,1,.6.45,1.36Q426.24,65,420.42,73.18a9.16,9.16,0,0,0-5.19-2.77l-.27.07a103.59,103.59,0,0,0-10.63-5h0c0-.06,0-.1,0-.15a4.49,4.49,0,0,0-3-1.57l12-17.16C419.58,49.25,425.65,52.33,431.65,55.53ZM79.23,467.79c-67.4-86.64-80.95-218.51-8.06-324.56C147,33,280.29.57,386.83,36.69c-3.59,5-7.13,10-10.69,15-.69,1-1.44,1.89-2.16,2.83A26.68,26.68,0,0,0,368.43,53a4.54,4.54,0,0,0-.68-.3,257.36,257.36,0,0,0-58.05-9A255.5,255.5,0,0,0,182.29,72.16c-42.83,22.28-77,53.93-102,95.22a256.1,256.1,0,0,0-6.71,253.39,207.21,207.21,0,0,0,14.59,23.87q1.83,2.78,3.65,5.58ZM113,503.29c-.5.7-.79.92-1.52.21-4.94-4.69-9.84-9.4-14.4-14.47h0q6.12-8.46,12.26-16.92a4.35,4.35,0,0,0,2.48,2.15h.08a93.91,93.91,0,0,0,8.28,8.53l0,.2c1.08,1.79,2.28,3.47,4.4,4.18C120.69,492.53,116.82,497.89,113,503.29Zm266.67,62.46a284.21,284.21,0,0,1-45.56,9.55,263.72,263.72,0,0,1-36.4,2.12,279.77,279.77,0,0,1-119.21-28,286.56,286.56,0,0,1-45.35-27.61,1.13,1.13,0,0,1,.17-1.06q5.92-8.09,11.83-16.19l2.6,1.88a8.17,8.17,0,0,0,.69.63,255.83,255.83,0,0,0,68.41,35.58,258.69,258.69,0,0,0,75.9,13.78,251.48,251.48,0,0,0,52.05-3.81A214.51,214.51,0,0,0,372.51,546l5.41-1.55c.95,6.51,1.86,13,2.89,19.51C381,565.06,380.69,565.44,379.66,565.75ZM576.55,323.94a277.82,277.82,0,0,1-28.86,101.28,274,274,0,0,1-48.43,67.86,278.2,278.2,0,0,1-54.88,43.76c-.27.16-.52.35-.78.53-.63-.4-.55-1.1-.64-1.68q-1.53-10.34-3-20.68l.93-.63a247.07,247.07,0,0,0,37.78-30.3c2.43-2.16,4.66-4.54,6.92-6.89a252.32,252.32,0,0,0,46.56-67.73,257.21,257.21,0,0,0,24.45-101.57,250.62,250.62,0,0,0-3.23-49.08,257.34,257.34,0,0,0-86.8-154,204.48,204.48,0,0,0-20.62-15.74l-2.7-1.88c3.59-5.67,7.68-11,11.48-16.5a.89.89,0,0,1,1-.43,284.71,284.71,0,0,1,33.92,27.12,278.71,278.71,0,0,1,84.71,159.8A270.74,270.74,0,0,1,576.55,323.94Zm-23.2-65.13a257.34,257.34,0,0,0-86.8-154,204.48,204.48,0,0,0-20.62-15.74l-.22.32a.86.86,0,0,1,.18.14,255.34,255.34,0,0,1,40.16,34.55c5,5.33,9.82,10.76,14.33,16.46a256.83,256.83,0,0,1,33.3,54.68,260.91,260.91,0,0,1,14.47,41.15,264.27,264.27,0,0,1,8,55.94,228.51,228.51,0,0,1-.79,28.18q-1,12.38-3.24,24.6a256.43,256.43,0,0,1-21.89,67.27,250.45,250.45,0,0,1-19.82,33.72,270.64,270.64,0,0,1-31.82,37.59l0,0c0,.12.07.24.11.37,2.43-2.16,4.66-4.54,6.92-6.89a252.32,252.32,0,0,0,46.56-67.73,257.21,257.21,0,0,0,24.45-101.57A250.62,250.62,0,0,0,553.35,258.81Z" transform="translate(-10.24 -10.47)"/><path class="cls-2" d="M374.1,54.29c-3.51,5-7,10.08-10.54,15.09q-12.74,18-25.53,35.86-21.81,30.66-43.61,61.33Q279.71,187.27,265,208q-21.85,30.75-43.71,61.48Q206.54,290.24,191.8,311c-2.44,3.42-4.94,6.8-7.27,10.3a2,2,0,0,1-2.62.92q-16.38-4.06-32.78-8c-5.59-1.36-11.19-2.65-16.76-4.05a1.8,1.8,0,0,0-2.3.89q-16.12,23.42-32.29,46.77c-1.1,1.59-2.12,3.27-3.34,4.77s-.58,1.88.92,2.24q14.77,3.54,29.52,7.17l18.39,4.5a2.21,2.21,0,0,1,1.38.66Q135.33,390.12,126,403.1q-14.79,20.52-29.62,41l-4.5,6.25-3.66-5.59c.06-.16.13-.31.19-.46A21.73,21.73,0,0,1,91,440.56q19.11-26.62,38.31-53.21c1.21-1.68,2.4-3.37,3.67-5,.88-1.14.55-1.56-.72-1.87q-11.7-2.88-23.43-5.7c-5.38-1.28-10.72-2.71-16.11-3.91a7.22,7.22,0,0,1-4.9-3.25,6.32,6.32,0,0,1,.31-7.26c4-5.87,8.07-11.68,12.09-17.53,6.8-9.88,13.67-19.71,20.45-29.6,1.49-2.18,3-4.35,4.5-6.52a6.8,6.8,0,0,1,7.86-2.95q20.16,4.78,40.28,9.79c1.89.46,3.82.76,5.68,1.33a2.29,2.29,0,0,0,2.87-1q12-16.81,23.9-33.64,18.85-26.48,37.67-53,16.8-23.64,33.6-47.31,18.82-26.49,37.66-53,19.77-27.79,39.49-55.6c4.14-5.85,8.32-11.65,12.44-17.51a4,4,0,0,1,.78-1,1.11,1.11,0,0,1,1.13-.14A26.62,26.62,0,0,1,374.1,54.29Z" transform="translate(-10.24 -10.47)"/><path class="cls-2" d="M378,544.66l-5.41,1.55A1.7,1.7,0,0,1,372,546c-.71-.5-.49-1.51-.62-2.25-1-6-1.79-12-2.68-18.07Q364.32,496,360,466.37c-1.37-9.38-2.79-18.75-4.09-28.14a3.58,3.58,0,0,0-3.16-3.5c-20.72-4.88-41.4-10-62.06-15.05q-20.3-5-40.62-10l-24.51-6a3,3,0,0,0-3.64,1.38q-10.75,15-21.57,30Q181,461.78,161.77,488.53q-6,8.25-11.89,16.51c-.41.56-.71,1.34-1.42,1.55a1.47,1.47,0,0,1-.67,0l-2.61-1.88c0-.06,0-.11,0-.17-.16-.7.34-1.17.7-1.68q11.47-16,23-31.94l28.62-39.73q11.92-16.58,23.89-33.15c.42-.59.75-1.33,1.58-1.53,7.28,1.74,14.57,3.47,21.85,5.24q21.57,5.25,43.14,10.54,31.31,7.68,62.6,15.34c3.1.76,6.19,1.55,9.3,2.2a1.92,1.92,0,0,1,1.73,1.84c1.28,9,2.54,17.94,3.86,26.9,1.44,9.84,3,19.65,4.39,29.48s2.84,19.8,4.28,29.7C375.38,526.74,376.72,535.71,378,544.66Z" transform="translate(-10.24 -10.47)"/><path class="cls-2" d="M333.7,242.75q1.91,12.88,3.81,25.77c1.33,9,2.7,17.92,4,26.88s2.58,18.07,3.9,27.09,2.7,17.92,4,26.88c.63,4.27,1.17,8.55,1.82,12.81.15,1,0,1.25-1,1-4.61-1.15-9.23-2.24-13.84-3.37l-59.15-14.45c-4.91-1.19-9.84-2.34-14.76-3.51-.35-.88.31-1.41.73-2q15.16-21.14,30.35-42.23,16.33-22.72,32.67-45.44c1.94-2.7,3.87-5.41,5.82-8.11C332.46,243.51,332.75,242.69,333.7,242.75Z" transform="translate(-10.24 -10.47)"/><path class="cls-3" d="M455.81,70a.9.9,0,0,0-.95.43C451.06,76,447,81.3,443.38,87a2.45,2.45,0,0,1,0,.27,3.23,3.23,0,0,1-.72,1.43Q427.75,109.85,412.8,131q-11.31,16-22.59,32a6.29,6.29,0,0,0-1.1,4.95q7.36,49.47,14.7,98.94l14.37,96.89q6.22,41.93,12.42,83.85,4.84,32.59,9.67,65.21a4.87,4.87,0,0,1,.05,1.7,2.34,2.34,0,0,1-.23.69c1,6.9,2,13.81,3,20.71.08.58,0,1.27.63,1.67-2.54,1.4-2.58,1.41-3-1.56-1.39-9.19-2.73-18.38-4.12-27.57-1.47-9.75-3-19.48-4.44-29.23s-2.79-19.51-4.24-29.27c-1.57-10.61-3.25-21.2-4.82-31.82s-3-21.24-4.6-31.86c-1.43-9.68-3-19.35-4.42-29-1.21-8.15-2.29-16.31-3.5-24.46-1.31-8.82-2.73-17.63-4-26.45-1.21-8.15-2.29-16.31-3.5-24.46-1.31-8.82-2.74-17.62-4-26.45-1.2-8.14-2.28-16.3-3.49-24.45-1.31-8.82-2.73-17.63-4-26.45s-2.56-17.66-3.85-26.49c-.57-3.82-1.19-7.64-1.8-11.46a4.76,4.76,0,0,1,.82-3.71q12.45-17.53,24.84-35.11,8.51-12,17-24.12c7.92-11.26,15.87-22.52,23.74-33.82C453.63,67.77,454.63,69.39,455.81,70Z" transform="translate(-10.24 -10.47)"/><path class="cls-2" d="M193.78,391.82l-16.94,23.47q-14.78,20.49-29.58,41-11.38,15.78-22.79,31.53c-2.11-.71-3.32-2.39-4.4-4.19l0-.2,0-.15c.27-1.28,1.26-2.17,2-3.18q27.69-38.31,55.27-76.71c1.91-2.64,3.76-5.33,5.75-7.91.82-1.07.67-1.51-.54-1.81-2.43-.59-4.9-1-7.27-1.81a2.92,2.92,0,0,0-3.83,1.24q-8.42,11.81-16.93,23.55-14.76,20.46-29.51,40.94c-3.71,5.14-7.4,10.3-11.13,15.43-.51.7-.9,1.62-1.86,1.84l-.24,0h-.09a4.38,4.38,0,0,1-2.47-2.16h0a2.08,2.08,0,0,1,0-.23c-.06-.87.56-1.47,1-2.11q23.22-32.11,46.36-64.3,7.26-10.09,14.54-20.16c.34-.45.64-.94,1.26-1.06h0c2.6,0,5,1,7.47,1.56,3.91.85,7.79,1.79,11.67,2.77C194.94,390.07,195.22,389.81,193.78,391.82Z" transform="translate(-10.24 -10.47)"/><path class="cls-2" d="M420.55,72.93c-4,5.76-8,11.54-12,17.26q-21.39,30.36-42.83,60.68c-1.44,2-2.91,4.07-4.31,6.16a1.69,1.69,0,0,1-2.06.8l-20.91-5.2c-.3-1,.49-1.63,1-2.3l22.26-31.5q12.89-18.21,25.76-36.4c4.14-5.83,8.2-11.72,12.41-17.5.4-.55.68-1.21,1.43-1.39h0l.15,0a4.54,4.54,0,0,1,3,1.56c0,.06,0,.1,0,.15h0a.66.66,0,0,1,0,.14,4,4,0,0,1-1.11,2.22Q382.63,97,361.92,126.25c-4.75,6.72-9.53,13.42-14.24,20.16-1.11,1.59-1.11,1.65.79,2.15,2.55.68,5.13,1.2,7.69,1.84a2.51,2.51,0,0,0,2.67-1c5.21-7.35,10.36-14.74,15.57-22.09,8.07-11.37,16.07-22.79,24.12-34.18L413.4,72.08c.45-.64.78-1.42,1.53-1.77l.16-.07.27-.08C417.32,70.67,419.21,71.29,420.55,72.93Z" transform="translate(-10.24 -10.47)"/><path class="cls-3" d="M222.93,396.54q-8.72,12.16-17.43,24.32l-34.87,48.41q-12.28,17-24.55,34c-.3.42-.55.86-.81,1.3l-.09.14q-5.91,8.12-11.83,16.21a1.13,1.13,0,0,0-.17,1.06c-2.22-1.78-2.27-1.81-.69-4q13.15-18.28,26.33-36.53l22.38-31.06L207.43,414c4-5.59,8.11-11.12,12-16.79C220.56,395.63,221.54,395.67,222.93,396.54Z" transform="translate(-10.24 -10.47)"/><path class="cls-3" d="M412.9,46.37l-12,17.19a.91.91,0,0,0-.11.16c-5,6.93-9.94,13.85-14.86,20.81Q362.45,117.7,339,150.9c-.4.56-.75,1.16-1.12,1.73a6.9,6.9,0,0,1-1.12,0c-1.1-.22-1.64-.52-.74-1.78,7.55-10.59,15-21.24,22.54-31.87Q367,107,375.51,95.05q13.62-19.22,27.23-38.43c2.2-3.12,4.41-6.23,6.5-9.43C410.28,45.6,411.32,45.05,412.9,46.37Z" transform="translate(-10.24 -10.47)"/><path class="cls-3" d="M172.51,384.41Q156.76,406.31,141,428.2q-15.37,21.36-30.77,42.7c-.19.28-.36.58-.53.87l-.34.51q-6.14,8.46-12.26,16.94h0c-1.37-1-1.82-1.82-.6-3.5q20.64-28.49,41.13-57.11c10.53-14.62,21.11-29.2,31.61-43.84C170.33,383.25,171.31,383.5,172.51,384.41Z" transform="translate(-10.24 -10.47)"/><path class="cls-3" d="M333.7,242.75q-7.06,9.74-14.12,19.48l-42.72,59.39q-6.92,9.61-13.84,19.24a10.18,10.18,0,0,0-.53,1c-.25,0-.5,0-.75,0-1.65-.21-2-.64-.83-2.2q15.39-21.18,30.62-42.47,11-15.31,22-30.66,9.53-13.27,19.06-26.52a2.76,2.76,0,0,1,.53-.42A6.91,6.91,0,0,1,333.7,242.75Z" transform="translate(-10.24 -10.47)"/><path class="cls-4" d="M368.53,52.72A3,3,0,0,0,368,53c-1.36.84-1.87,2.42-2.75,3.63-5.45,7.48-10.74,15.06-16.11,22.6q-14.18,20-28.38,39.89c-6.48,9.13-12.92,18.29-19.4,27.41q-12.49,17.58-25,35.13c-6.3,8.86-12.55,17.76-18.86,26.63Q245.58,225,233.69,241.58q-9.41,13.23-18.76,26.48Q200.74,288,186.55,308c-1.53,2.14-3.13,4.23-4.51,6.46a2.1,2.1,0,0,1-2.76,1.06c-9.87-2.46-19.77-4.84-29.66-7.25L132,304c-2.19-.52-4.83.74-6.39,3Q117.27,319,109,331.09c-6.79,9.83-13.62,19.63-20.39,29.48-2.64,3.84-1.18,8.16,3.33,9.52,4,1.2,8.11,2.05,12.18,3.05,9.71,2.37,19.4,4.79,29.13,7.07,1.63.38,1.24.92.61,1.8q-12.06,16.64-24.09,33.26Q100,428.82,90.26,442.38a10.6,10.6,0,0,1-1.69,2.18,4,4,0,0,1-.34.23A207.46,207.46,0,0,1,73.64,420.9a256.94,256.94,0,0,1,6.71-253.65c25-41.32,59.15-73,102-95.31a255.31,255.31,0,0,1,127.45-28.5,257,257,0,0,1,58.06,9A3.71,3.71,0,0,1,368.53,52.72Z" transform="translate(-10.24 -10.47)"/><path class="cls-4" d="M556.76,307.9A257.7,257.7,0,0,1,532.3,409.58a252.28,252.28,0,0,1-46.58,67.8c-2.25,2.35-4.48,4.73-6.92,6.9a1.81,1.81,0,0,1-.33-.2c-.69-.53-.71-1.45-.92-2.21L470.2,455q-7.08-26-14.18-52-6.51-23.91-13-47.81-7.64-28-15.28-56-6.42-23.54-12.83-47.08-7.1-26-14.18-52c-2.85-10.48-5.69-21-8.6-31.44a6,6,0,0,1,1-5.45q20.43-28.92,40.85-57.87c3.58-5.09,7.15-10.19,10.78-15.23a3.54,3.54,0,0,1,.93-1.1,1.17,1.17,0,0,1,.39-.18,203.3,203.3,0,0,1,20.62,15.77,257.65,257.65,0,0,1,86.83,154.15A251.08,251.08,0,0,1,556.76,307.9Z" transform="translate(-10.24 -10.47)"/><path class="cls-2" d="M478.8,484.28A247.75,247.75,0,0,1,441,514.61l-.93.63-.06-.38q-2.61-17.34-5.22-34.7c-1.71-11.52-3.33-23-5-34.55s-3.46-22.76-5.15-34.14c-1.95-13.12-3.82-26.26-5.76-39.38-2.07-14-4.22-28-6.29-41.95-1.71-11.52-3.33-23-5-34.56-1.81-12.25-3.71-24.5-5.53-36.75s-3.57-24.77-5.41-37.15c-1.68-11.32-3.42-22.64-5.13-34-1-6.93-2-13.86-3.07-20.79a4.51,4.51,0,0,1,.87-3.5Q414.13,128.26,438.94,93a55.28,55.28,0,0,1,4.32-5.92l.11-.13,2.71,1.88-.22.32c-2.54,3.71-5.06,7.44-7.64,11.12-4.31,6.13-8.69,12.23-13,18.36Q414,134.58,402.72,150.53c-3.21,4.55-6.37,9.12-9.61,13.64a3.9,3.9,0,0,0-.67,3.67c3.76,13.61,7.44,27.25,11.14,40.87l8.49,31.1q5.37,19.71,10.75,39.43,4.83,17.72,9.64,35.44,5.32,19.54,10.67,39.06,4.29,15.74,8.56,31.47,5.32,19.55,10.68,39.06,4.28,15.64,8.52,31.28,3.9,14.18,7.81,28.35C478.73,484,478.77,484.15,478.8,484.28Z" transform="translate(-10.24 -10.47)"/><path class="cls-4" d="M373.59,546.21a212.3,212.3,0,0,1-27.91,6.71,251.43,251.43,0,0,1-52.4,3.86,259,259,0,0,1-145.27-50c-.25-.18-.45-.43-.69-.64.11-.08.21-.18.31-.26,1.92-1.76,3.12-4.08,4.62-6.15q16.69-23.07,33.25-46.25Q198.77,435,212,416.4c3.3-4.62,6.63-9.22,9.92-13.85a2.51,2.51,0,0,1,3.09-1.16c16.15,4.06,32.33,8,48.5,12q16.65,4.11,33.31,8.22l43.95,10.79a20.77,20.77,0,0,0,3.66.83c1.94.1,2.49,1.25,2.71,2.89q1.51,11,3.09,21.89c1,6.54,2,13.06,2.95,19.6,1.07,7.36,2.05,14.72,3.13,22.07,1.33,9,2.75,18.05,4.08,27.08.83,5.67,1.55,11.35,2.37,17a4.92,4.92,0,0,0,.53,2.06A1.79,1.79,0,0,0,373.59,546.21Z" transform="translate(-10.24 -10.47)"/><path class="cls-4" d="M329.36,254.7c1.09,7.07,2.15,13.71,3.12,20.36,1,6.47,1.81,12.95,2.75,19.43.8,5.54,1.68,11.08,2.49,16.62s1.59,11.22,2.4,16.83c.91,6.23,1.85,12.44,2.76,18.67.37,2.52.6,5.08,1.08,7.58.29,1.45-.28,1.28-1.25,1q-9.91-2.44-19.84-4.86l-45.12-11c-2.06-.51-4.12-1-6.21-1.42-1.38-.25-1.59-.69-.74-1.85,3.4-4.63,6.75-9.3,10.11-14q7.62-10.58,15.21-21.16Q308,284.52,319.8,268.1C322.93,263.75,326,259.38,329.36,254.7Z" transform="translate(-10.24 -10.47)"/><path class="cls-4" d="M184.21,394.33q-15.79,21.78-31.53,43.6c-7.16,9.94-14.26,19.92-21.41,29.86-3.46,4.83-7,9.61-10.46,14.42a5.61,5.61,0,0,0-.44,1l-.27-.24a95.39,95.39,0,0,1-8.28-8.54l-.2-.24c.91-.06,1.21-.89,1.62-1.45q9.45-13,18.84-26.16l23.06-31.92q8.4-11.62,16.75-23.28a1.75,1.75,0,0,1,2.07-.82c3.27.82,6.52,1.72,9.8,2.48C184.82,393.3,184.81,393.51,184.21,394.33Z" transform="translate(-10.24 -10.47)"/><path class="cls-4" d="M415.4,70.4c-2.18,2.18-3.68,4.87-5.44,7.35-10.51,14.86-20.94,29.77-31.42,44.64-6.45,9.15-13,18.25-19.39,27.42a2.29,2.29,0,0,1-2.95,1.08c-2.95-.83-5.95-1.44-8.93-2.13-1.06-.24-1.5-.55-.67-1.69,5.43-7.58,10.79-15.19,16.18-22.79,3.72-5.26,7.46-10.49,11.18-15.75q11.21-15.87,22.37-31.74c2.7-3.83,5.34-7.71,8-11.57l.13,0h0a101.58,101.58,0,0,1,10.63,5Z" transform="translate(-10.24 -10.47)"/></svg>