<svg id="Layer_1" data-name="Layer 1" xmlns="http://www.w3.org/2000/svg" xmlns:xlink="http://www.w3.org/1999/xlink" viewBox="0 0 247 248"><defs><style>.cls-1{fill:#fff;}.cls-2{opacity:0.3;fill:url(#linear-gradient);}.cls-2,.cls-5{isolation:isolate;}.cls-3,.cls-5{fill:#192c3a;}.cls-3{fill-opacity:0.65;}.cls-3,.cls-4,.cls-5,.cls-8{stroke:#707d89;stroke-width:2px;}.cls-4,.cls-6,.cls-8{fill:none;}.cls-4,.cls-6{stroke-linecap:square;}.cls-5{fill-opacity:0.42;opacity:0.95;}.cls-6{stroke:#ed1e24;stroke-width:3px;}.cls-7{mask:url(#mask);}.cls-9{opacity:0.9;}</style><linearGradient id="linear-gradient" x1="-180.76" y1="519.9" x2="-180.76" y2="519.01" gradientTransform="matrix(247, 0, 0, -247, 44772, 128417)" gradientUnits="userSpaceOnUse"><stop offset="0" stop-color="#192c3a"/><stop offset="1" stop-color="#192c3a"/></linearGradient><mask id="mask" x="61" y="33" width="124" height="36" maskUnits="userSpaceOnUse"><g id="mask-3"><rect id="path-2" class="cls-1" x="62" y="34" width="122" height="34"/></g></mask></defs><title>push-notifications</title><path id="Oval-2" class="cls-2" d="M123.5,248A123.5,123.5,0,1,0,0,124.5,123.5,123.5,0,0,0,123.5,248Z"/><g id="Phone"><rect id="Combined-Shape" class="cls-3" x="62" y="1" width="122.17" height="220.46" rx="8" ry="8"/><path id="Line" class="cls-4" d="M62.64,188H183.53"/><path id="Line-2" data-name="Line" class="cls-4" d="M112.27,204h22.9"/></g><ellipse id="Oval-2-2" data-name="Oval-2" class="cls-5" cx="169" cy="58.49" rx="47" ry="44.49"/><path id="Line-3" data-name="Line" class="cls-6" d="M74.71,53.5h37.78"/><path id="Line-4" data-name="Line" class="cls-6" d="M84,44.42h21"/><g id="Rectangle-3"><g id="path-2-Clipped"><g class="cls-7"><rect id="path-2-3" data-name="path-2" class="cls-8" x="62" y="34" width="122" height="34"/></g></g></g><g id="android-notifications-none" class="cls-9"><path id="Shape" class="cls-1" d="M169.16,38.58a20.89,20.89,0,0,1,3.32.59,13.62,13.62,0,0,1,10.76,13.21V69.25l1.29,1.23,1.08,1H152.44l1.08-1,1.29-1.23V52.38a13.62,13.62,0,0,1,10.76-13.21,25.59,25.59,0,0,1,3.32-.59ZM169,29a4.15,4.15,0,0,0-4.31,4.12v1.93a18,18,0,0,0-14.34,17.33V67.5L144.64,73v2.75h48.77V73l-5.74-5.5V52.38a18,18,0,0,0-14.34-17.33V33.12A4.14,4.14,0,0,0,169,29Zm5.73,49.5H163.29a5.74,5.74,0,0,0,11.47,0Z"/></g></svg>