<svg id="Layer_1" data-name="Layer 1" xmlns="http://www.w3.org/2000/svg" xmlns:xlink="http://www.w3.org/1999/xlink" viewBox="0 0 247 247"><defs><style>.cls-1{opacity:0.3;isolation:isolate;fill:url(#linear-gradient);}.cls-2,.cls-4{fill:#192c3a;}.cls-2{fill-opacity:0.65;}.cls-2,.cls-3{stroke:#707d89;}.cls-2,.cls-3,.cls-4,.cls-5,.cls-6{stroke-width:2px;}.cls-3,.cls-5{fill:none;}.cls-3{stroke-linecap:square;}.cls-4,.cls-5,.cls-6{stroke:#ed1e24;}.cls-6{fill:#f9f9f9;}.cls-7{fill:#fff;}</style><linearGradient id="linear-gradient" x1="-362.03" y1="2.2" x2="-362.03" y2="3.1" gradientTransform="translate(89544 -544) scale(247)" gradientUnits="userSpaceOnUse"><stop offset="0" stop-color="#192c3a"/><stop offset="1" stop-color="#192c3a"/></linearGradient></defs><title>tour-control</title><path id="Oval-2" class="cls-1" d="M123.5,247A123.5,123.5,0,1,0,0,123.5H0A123.5,123.5,0,0,0,123.5,247Z"/><rect id="Combined-Shape" class="cls-2" x="63" y="24" width="99.83" height="183.88" rx="8" ry="8"/><path id="Line" class="cls-3" d="M63.52,180.63h98.79"/><path id="Line-2" class="cls-3" d="M104.08,194.25h18.71"/><g id="Group-3"><rect id="Rectangle-path" class="cls-4" x="125.01" y="159.65" width="74.76" height="65.72" rx="4" ry="4"/><path id="Shape-7" class="cls-5" d="M143.7,159.65V140.87a18.8,18.8,0,0,1,18.69-18.78h0a18.8,18.8,0,0,1,18.69,18.78v18.78"/><path id="Shape-8" class="cls-6" d="M161.63,187.81v9.39"/></g><path class="cls-7" d="M133.57,69.59l-.13.18-1.21,1.69a30.88,30.88,0,1,1-36,50.18L95,123.33l-.13.18a33.19,33.19,0,1,0,39.87-53.08Q134.17,70,133.57,69.59Z"/><path class="cls-7" d="M88.68,115l.4-.55a30.9,30.9,0,0,1,34-47.35l.4-.56,1-1.42a33.2,33.2,0,0,0-36.83,51.3Z"/><polygon class="cls-7" points="117.69 91.85 111.18 100.91 119.31 102.88 117.69 91.85"/><path class="cls-7" d="M95.09,106.06l-8.93-2a29,29,0,0,0,4,8.87Z"/><path class="cls-7" d="M120.73,112.28l-6.63-1.62h0l-1.35-.35-7.15-1.73-8.4,11.69a29.26,29.26,0,0,0,25.69,4.4Z"/><path class="cls-7" d="M131.24,72.84l-6.18,8.61,6.16,39.12a29.17,29.17,0,0,0,0-47.73Z"/><path class="cls-7" d="M85.72,95.11l14.89,3.26,21.44-29.86A29.2,29.2,0,0,0,86.23,89.09a28.82,28.82,0,0,0-1,5.91Z"/><path class="cls-7" d="M129.74,67.39l-1.3,1.81-8,11.08L119.23,80l8.12-11.32,1.31-1.82-2-.85-1.32,1.85L101.59,101,85.23,97.36a28.57,28.57,0,0,0,.4,4.23l13.37,3-8.43,11.74-1.33,1.85c.46.54.94,1.06,1.43,1.56L92,117.9l9.17-12.78,1.26.32-9.56,13.34-1.3,1.81c.5.48,1,1,1.57,1.4l1.29-1.8L104.62,106l.26.07,8.4,2,1.37.35,8.09,2,2.34,13.49a27.59,27.59,0,0,0,4-2l-6.47-41,7.65-10.67,1.29-1.79Zm-22.43,35,11.83-16.47,2.94,20.06Z"/></svg>