<?xml version="1.0" encoding="utf-8"?>
<!-- Generator: Adobe Illustrator 22.0.1, SVG Export Plug-In . SVG Version: 6.00 Build 0)  -->
<svg version="1.1" id="Layer_1" xmlns="http://www.w3.org/2000/svg" xmlns:xlink="http://www.w3.org/1999/xlink" x="0px" y="0px"
	 viewBox="0 0 377 247" style="enable-background:new 0 0 377 247;" xml:space="preserve">
<style type="text/css">
	.st0{opacity:0.3;fill:url(#Shape_7_);enable-background:new    ;}
	.st1{opacity:0.3;fill:url(#Shape_8_);enable-background:new    ;}
	.st2{opacity:0.3;}
	.st3{fill:#ED1E24;}
	.st4{opacity:0.64;fill:none;stroke:#0085FF;stroke-width:2;stroke-linecap:square;enable-background:new    ;}
	.st5{fill:#1A2A71;stroke:#FFFFFF;stroke-width:3;}
</style>
<title>tour-currency</title>
<desc>Created with Sketch.</desc>
<linearGradient id="Shape_7_" gradientUnits="userSpaceOnUse" x1="-116.0263" y1="518.8988" x2="-116.0263" y2="518.0042" gradientTransform="matrix(247 0 0 -247 28847 128168)">
	<stop  offset="0" style="stop-color:#192C3A"/>
	<stop  offset="1" style="stop-color:#192C3A"/>
</linearGradient>
<path id="Shape" class="st0" d="M188.5,247c68.2,0,123.5-55.3,123.5-123.5S256.7,0,188.5,0S65,55.3,65,123.5S120.3,247,188.5,247z"
	/>
<linearGradient id="Shape_8_" gradientUnits="userSpaceOnUse" x1="-116.188" y1="517.1866" x2="-116.188" y2="518.1866" gradientTransform="matrix(375 0 0 -150 43759 77763)">
	<stop  offset="0" style="stop-color:#192C3A"/>
	<stop  offset="1" style="stop-color:#192C3A"/>
</linearGradient>
<polygon id="Shape_1_" class="st1" points="55.3,127.3 98.7,97.8 141.1,119.9 185.6,80.7 223.9,80.7 248.7,47.5 281.8,67.2 
	322.2,56.1 376,35 376,185 151.1,185 1.4,185 1,133.5 "/>
<g id="Group" transform="translate(76.000000, 61.000000)" class="st2">
	<path id="Shape_2_" class="st3" d="M225.2,124h-0.5v-4h0.5V124z M225.2,116h-0.5v-4h0.5V116z M225.2,108h-0.5v-4h0.5V108z
		 M225.2,100h-0.5v-4h0.5V100z M225.2,92h-0.5v-4h0.5V92z M225.2,84h-0.5v-4h0.5V84z M225.2,76h-0.5v-4h0.5V76z M225.2,68h-0.5v-4
		h0.5V68z M225.2,60h-0.5v-4h0.5V60z M225.2,52h-0.5v-4h0.5V52z M225.2,44h-0.5v-4h0.5V44z M225.2,36h-0.5v-4h0.5V36z M225.2,28
		h-0.5v-4h0.5V28z M225.2,20h-0.5v-4h0.5V20z M225.2,12h-0.5V8h0.5V12z M225.2,4h-0.5V0h0.5V4z"/>
	<path id="Shape_3_" class="st3" d="M150.2,124h-0.5v-4h0.5V124z M150.2,116h-0.5v-4h0.5V116z M150.2,108h-0.5v-4h0.5V108z
		 M150.2,100h-0.5v-4h0.5V100z M150.2,92h-0.5v-4h0.5V92z M150.2,84h-0.5v-4h0.5V84z M150.2,76h-0.5v-4h0.5V76z M150.2,68h-0.5v-4
		h0.5V68z M150.2,60h-0.5v-4h0.5V60z M150.2,52h-0.5v-4h0.5V52z M150.2,44h-0.5v-4h0.5V44z M150.2,36h-0.5v-4h0.5V36z M150.2,28
		h-0.5v-4h0.5V28z M150.2,20h-0.5v-3.2h0.5V20z"/>
	<path id="Shape_4_" class="st3" d="M75.2,124h-0.5v-4h0.5V124z M75.2,116h-0.5v-4h0.5V116z M75.2,108h-0.5v-4h0.5V108z M75.2,100
		h-0.5v-4h0.5V100z M75.2,92h-0.5v-4h0.5V92z M75.2,84h-0.5v-4h0.5V84z M75.2,76h-0.5v-4h0.5V76z M75.2,68h-0.5v-4h0.5V68z M75.2,60
		h-0.5v-4h0.5V60z M75.2,52h-0.5v-2h0.5V52z"/>
	<path id="Shape_5_" class="st3" d="M0.2,124h-0.5v-4h0.5V124z M0.2,116h-0.5v-4h0.5V116z M0.2,108h-0.5v-4h0.5V108z M0.2,100h-0.5
		v-4h0.5V100z M0.2,92h-0.5v-4h0.5V92z M0.2,84h-0.5v-4h0.5V84z M0.2,76h-0.5v-4h0.5V76z M0.2,68h-0.5v-4h0.5V68z M0.2,60h-0.5v-4
		h0.5V60z"/>
</g>
<path id="Shape_6_" class="st3" d="M1,134.5c-0.5,0-0.9-0.4-1-0.9s0.3-1,0.9-1.1l54.1-6.2L98.1,97c0.3-0.2,0.7-0.2,1-0.1l41.8,21.8
	l44-38.7c0.2-0.2,0.4-0.2,0.7-0.2h37.8L247.9,47c0.3-0.4,0.9-0.5,1.3-0.3l32.7,19.5l39.9-11l53.8-21.1c0.5-0.2,1.1,0.1,1.3,0.6
	c0.2,0.5-0.1,1.1-0.6,1.3l-53.8,21.1h-0.1L282,68.2c-0.3,0.1-0.5,0-0.8-0.1L249,48.9l-24.3,32.5c-0.2,0.3-0.5,0.4-0.8,0.4H186
	l-44.2,39c-0.3,0.3-0.8,0.3-1.1,0.1L98.8,99l-42.9,29.2c-0.1,0.1-0.3,0.1-0.4,0.2l-54.3,6.2C1.1,134.5,1,134.5,1,134.5z"/>
<g id="Group_1_" transform="translate(185.000000, 38.000000)">
	<path id="Line_1_" class="st4" d="M3.5,0.5v146"/>
	<circle id="dot" class="st5" cx="3.5" cy="41.5" r="4.5"/>
</g>
</svg>
